<mxfile host="Electron" modified="2023-05-10T06:12:23.265Z" agent="Mozilla/5.0 (Windows NT 10.0; Win64; x64) AppleWebKit/537.36 (KHTML, like Gecko) draw.io/21.2.1 Chrome/112.0.5615.87 Electron/24.1.2 Safari/537.36" etag="WTxoKpUKuln8RVxj5Xbe" version="21.2.1" type="device">
  <diagram name="第 1 页" id="QoddUvNeKvN_IUfzqx4K">
    <mxGraphModel dx="2037" dy="1630" grid="1" gridSize="10" guides="1" tooltips="1" connect="1" arrows="1" fold="1" page="1" pageScale="1" pageWidth="827" pageHeight="1169" math="0" shadow="0">
      <root>
        <mxCell id="0" />
        <mxCell id="1" parent="0" />
        <mxCell id="PoWQCDL0FBw1ZR0qfgTg-110" value="用户登录信息" style="edgeStyle=orthogonalEdgeStyle;rounded=0;orthogonalLoop=1;jettySize=auto;html=1;exitX=0.5;exitY=0;exitDx=0;exitDy=0;entryX=0;entryY=0.5;entryDx=0;entryDy=0;entryPerimeter=0;" parent="1" source="PoWQCDL0FBw1ZR0qfgTg-118" target="PoWQCDL0FBw1ZR0qfgTg-119" edge="1">
          <mxGeometry relative="1" as="geometry" />
        </mxCell>
        <mxCell id="PoWQCDL0FBw1ZR0qfgTg-111" value="用户账号信息" style="edgeStyle=orthogonalEdgeStyle;rounded=0;orthogonalLoop=1;jettySize=auto;html=1;exitX=0.75;exitY=0;exitDx=0;exitDy=0;entryX=0;entryY=0.5;entryDx=0;entryDy=0;entryPerimeter=0;" parent="1" source="PoWQCDL0FBw1ZR0qfgTg-118" target="PoWQCDL0FBw1ZR0qfgTg-131" edge="1">
          <mxGeometry relative="1" as="geometry" />
        </mxCell>
        <mxCell id="lf_C6UF_IHhdtLDmvN1T-9" value="确认选题情况" style="edgeStyle=orthogonalEdgeStyle;rounded=0;orthogonalLoop=1;jettySize=auto;html=1;exitX=1;exitY=0.75;exitDx=0;exitDy=0;entryX=0;entryY=0.5;entryDx=0;entryDy=0;entryPerimeter=0;" edge="1" parent="1" source="PoWQCDL0FBw1ZR0qfgTg-118" target="lf_C6UF_IHhdtLDmvN1T-4">
          <mxGeometry relative="1" as="geometry" />
        </mxCell>
        <mxCell id="lf_C6UF_IHhdtLDmvN1T-10" value="审核周进度报告情况" style="edgeStyle=orthogonalEdgeStyle;rounded=0;orthogonalLoop=1;jettySize=auto;html=1;exitX=1;exitY=1;exitDx=0;exitDy=0;entryX=0;entryY=0.5;entryDx=0;entryDy=0;entryPerimeter=0;" edge="1" parent="1" source="PoWQCDL0FBw1ZR0qfgTg-118" target="lf_C6UF_IHhdtLDmvN1T-7">
          <mxGeometry relative="1" as="geometry" />
        </mxCell>
        <mxCell id="lf_C6UF_IHhdtLDmvN1T-11" value="审核材料相关信息" style="edgeStyle=orthogonalEdgeStyle;rounded=0;orthogonalLoop=1;jettySize=auto;html=1;exitX=0.75;exitY=1;exitDx=0;exitDy=0;entryX=0;entryY=0.5;entryDx=0;entryDy=0;entryPerimeter=0;" edge="1" parent="1" source="PoWQCDL0FBw1ZR0qfgTg-118" target="lf_C6UF_IHhdtLDmvN1T-8">
          <mxGeometry relative="1" as="geometry" />
        </mxCell>
        <mxCell id="lf_C6UF_IHhdtLDmvN1T-17" value="审核中期检查相关信息" style="edgeStyle=orthogonalEdgeStyle;rounded=0;orthogonalLoop=1;jettySize=auto;html=1;exitX=0.5;exitY=1;exitDx=0;exitDy=0;entryX=0;entryY=0.5;entryDx=0;entryDy=0;entryPerimeter=0;" edge="1" parent="1" source="PoWQCDL0FBw1ZR0qfgTg-118" target="lf_C6UF_IHhdtLDmvN1T-14">
          <mxGeometry relative="1" as="geometry" />
        </mxCell>
        <mxCell id="lf_C6UF_IHhdtLDmvN1T-18" value="审阅定稿相关信息" style="edgeStyle=orthogonalEdgeStyle;rounded=0;orthogonalLoop=1;jettySize=auto;html=1;exitX=0.25;exitY=1;exitDx=0;exitDy=0;entryX=0;entryY=0.5;entryDx=0;entryDy=0;entryPerimeter=0;" edge="1" parent="1" source="PoWQCDL0FBw1ZR0qfgTg-118" target="lf_C6UF_IHhdtLDmvN1T-15">
          <mxGeometry relative="1" as="geometry" />
        </mxCell>
        <mxCell id="lf_C6UF_IHhdtLDmvN1T-19" value="审核修改相关信息" style="edgeStyle=orthogonalEdgeStyle;rounded=0;orthogonalLoop=1;jettySize=auto;html=1;exitX=0;exitY=1;exitDx=0;exitDy=0;entryX=0;entryY=0.5;entryDx=0;entryDy=0;entryPerimeter=0;" edge="1" parent="1" source="PoWQCDL0FBw1ZR0qfgTg-118" target="lf_C6UF_IHhdtLDmvN1T-16">
          <mxGeometry relative="1" as="geometry" />
        </mxCell>
        <mxCell id="lf_C6UF_IHhdtLDmvN1T-21" value="校优论文推荐表相关信息" style="edgeStyle=orthogonalEdgeStyle;rounded=0;orthogonalLoop=1;jettySize=auto;html=1;exitX=0;exitY=0.75;exitDx=0;exitDy=0;entryX=0;entryY=0.5;entryDx=0;entryDy=0;entryPerimeter=0;" edge="1" parent="1" source="PoWQCDL0FBw1ZR0qfgTg-118" target="lf_C6UF_IHhdtLDmvN1T-20">
          <mxGeometry relative="1" as="geometry" />
        </mxCell>
        <mxCell id="lf_C6UF_IHhdtLDmvN1T-31" value="课题相关信息" style="edgeStyle=orthogonalEdgeStyle;rounded=0;orthogonalLoop=1;jettySize=auto;html=1;exitX=0;exitY=0.5;exitDx=0;exitDy=0;entryX=0;entryY=0.5;entryDx=0;entryDy=0;entryPerimeter=0;" edge="1" parent="1" source="PoWQCDL0FBw1ZR0qfgTg-118" target="PoWQCDL0FBw1ZR0qfgTg-155">
          <mxGeometry x="-0.2961" relative="1" as="geometry">
            <Array as="points">
              <mxPoint x="-20" y="435" />
              <mxPoint x="-20" y="1100" />
            </Array>
            <mxPoint y="1" as="offset" />
          </mxGeometry>
        </mxCell>
        <mxCell id="lf_C6UF_IHhdtLDmvN1T-32" value="任务书相关信息" style="edgeStyle=orthogonalEdgeStyle;rounded=0;orthogonalLoop=1;jettySize=auto;html=1;exitX=0;exitY=0.25;exitDx=0;exitDy=0;entryX=0;entryY=0.5;entryDx=0;entryDy=0;entryPerimeter=0;" edge="1" parent="1" source="PoWQCDL0FBw1ZR0qfgTg-118" target="PoWQCDL0FBw1ZR0qfgTg-165">
          <mxGeometry x="-0.2338" relative="1" as="geometry">
            <Array as="points">
              <mxPoint x="-40" y="423" />
              <mxPoint x="-40" y="1190" />
            </Array>
            <mxPoint as="offset" />
          </mxGeometry>
        </mxCell>
        <mxCell id="PoWQCDL0FBw1ZR0qfgTg-118" value="指导教师" style="html=1;dashed=0;whiteSpace=wrap;fillColor=#f5f5f5;fontColor=#333333;strokeColor=#666666;" parent="1" vertex="1">
          <mxGeometry x="40" y="410" width="100" height="50" as="geometry" />
        </mxCell>
        <mxCell id="PoWQCDL0FBw1ZR0qfgTg-119" value="用户登录" style="html=1;dashed=0;whiteSpace=wrap;shape=mxgraph.dfd.start;fillColor=#f5f5f5;fontColor=#333333;strokeColor=#666666;" parent="1" vertex="1">
          <mxGeometry x="300" y="140" width="136" height="60" as="geometry" />
        </mxCell>
        <mxCell id="PoWQCDL0FBw1ZR0qfgTg-120" value="验证" style="edgeStyle=orthogonalEdgeStyle;rounded=0;orthogonalLoop=1;jettySize=auto;html=1;exitX=0.5;exitY=0;exitDx=0;exitDy=0;entryX=1;entryY=0.5;entryDx=0;entryDy=0;entryPerimeter=0;" parent="1" source="PoWQCDL0FBw1ZR0qfgTg-122" target="PoWQCDL0FBw1ZR0qfgTg-119" edge="1">
          <mxGeometry relative="1" as="geometry" />
        </mxCell>
        <mxCell id="PoWQCDL0FBw1ZR0qfgTg-121" value="用户信息" style="edgeStyle=orthogonalEdgeStyle;rounded=0;orthogonalLoop=1;jettySize=auto;html=1;" parent="1" source="PoWQCDL0FBw1ZR0qfgTg-122" target="PoWQCDL0FBw1ZR0qfgTg-129" edge="1">
          <mxGeometry relative="1" as="geometry" />
        </mxCell>
        <mxCell id="PoWQCDL0FBw1ZR0qfgTg-122" value="用户信息表" style="html=1;dashed=0;whiteSpace=wrap;shape=partialRectangle;right=0;fillColor=#f5f5f5;fontColor=#333333;strokeColor=#666666;" parent="1" vertex="1">
          <mxGeometry x="580" y="330" width="110" height="55" as="geometry" />
        </mxCell>
        <mxCell id="PoWQCDL0FBw1ZR0qfgTg-123" value="教师信息" style="edgeStyle=orthogonalEdgeStyle;rounded=0;orthogonalLoop=1;jettySize=auto;html=1;exitX=0;exitY=0.5;exitDx=0;exitDy=0;entryX=1;entryY=0.5;entryDx=0;entryDy=0;entryPerimeter=0;" parent="1" source="PoWQCDL0FBw1ZR0qfgTg-124" target="PoWQCDL0FBw1ZR0qfgTg-129" edge="1">
          <mxGeometry relative="1" as="geometry" />
        </mxCell>
        <mxCell id="PoWQCDL0FBw1ZR0qfgTg-124" value="教师信息表" style="html=1;dashed=0;whiteSpace=wrap;shape=partialRectangle;right=0;fillColor=#f5f5f5;fontColor=#333333;strokeColor=#666666;" parent="1" vertex="1">
          <mxGeometry x="580" y="410" width="110" height="55" as="geometry" />
        </mxCell>
        <mxCell id="PoWQCDL0FBw1ZR0qfgTg-125" value="课题信息" style="edgeStyle=orthogonalEdgeStyle;rounded=0;orthogonalLoop=1;jettySize=auto;html=1;exitX=0;exitY=0.5;exitDx=0;exitDy=0;entryX=0.5;entryY=0.5;entryDx=0;entryDy=30;entryPerimeter=0;" parent="1" source="PoWQCDL0FBw1ZR0qfgTg-127" target="PoWQCDL0FBw1ZR0qfgTg-129" edge="1">
          <mxGeometry relative="1" as="geometry">
            <mxPoint x="390" y="470" as="targetPoint" />
          </mxGeometry>
        </mxCell>
        <mxCell id="PoWQCDL0FBw1ZR0qfgTg-127" value="课题信息表" style="html=1;dashed=0;whiteSpace=wrap;shape=partialRectangle;right=0;fillColor=#f5f5f5;fontColor=#333333;strokeColor=#666666;" parent="1" vertex="1">
          <mxGeometry x="580" y="490" width="110" height="55" as="geometry" />
        </mxCell>
        <mxCell id="PoWQCDL0FBw1ZR0qfgTg-128" value="个人信息" style="edgeStyle=orthogonalEdgeStyle;rounded=0;orthogonalLoop=1;jettySize=auto;html=1;exitX=0;exitY=0.5;exitDx=0;exitDy=0;exitPerimeter=0;entryX=1;entryY=0.5;entryDx=0;entryDy=0;" parent="1" source="PoWQCDL0FBw1ZR0qfgTg-129" target="PoWQCDL0FBw1ZR0qfgTg-118" edge="1">
          <mxGeometry relative="1" as="geometry" />
        </mxCell>
        <mxCell id="PoWQCDL0FBw1ZR0qfgTg-129" value="查看个人信息" style="html=1;dashed=0;whiteSpace=wrap;shape=mxgraph.dfd.start;fillColor=#f5f5f5;fontColor=#333333;strokeColor=#666666;" parent="1" vertex="1">
          <mxGeometry x="370" y="405" width="136" height="60" as="geometry" />
        </mxCell>
        <mxCell id="PoWQCDL0FBw1ZR0qfgTg-130" value="修改后的用户账号信息" style="edgeStyle=orthogonalEdgeStyle;rounded=0;orthogonalLoop=1;jettySize=auto;html=1;exitX=1;exitY=0.5;exitDx=0;exitDy=0;exitPerimeter=0;entryX=0.25;entryY=0;entryDx=0;entryDy=0;" parent="1" source="PoWQCDL0FBw1ZR0qfgTg-131" target="PoWQCDL0FBw1ZR0qfgTg-122" edge="1">
          <mxGeometry relative="1" as="geometry" />
        </mxCell>
        <mxCell id="PoWQCDL0FBw1ZR0qfgTg-131" value="账号管理" style="html=1;dashed=0;whiteSpace=wrap;shape=mxgraph.dfd.start;fillColor=#f5f5f5;fontColor=#333333;strokeColor=#666666;" parent="1" vertex="1">
          <mxGeometry x="346" y="240" width="136" height="60" as="geometry" />
        </mxCell>
        <mxCell id="PoWQCDL0FBw1ZR0qfgTg-164" value="选题信息" style="edgeStyle=orthogonalEdgeStyle;rounded=0;orthogonalLoop=1;jettySize=auto;html=1;exitX=0.25;exitY=0;exitDx=0;exitDy=0;" parent="1" source="PoWQCDL0FBw1ZR0qfgTg-138" target="PoWQCDL0FBw1ZR0qfgTg-129" edge="1">
          <mxGeometry relative="1" as="geometry">
            <mxPoint x="410" y="470" as="targetPoint" />
            <Array as="points">
              <mxPoint x="430" y="554" />
              <mxPoint x="430" y="530" />
              <mxPoint x="410" y="530" />
            </Array>
          </mxGeometry>
        </mxCell>
        <mxCell id="PoWQCDL0FBw1ZR0qfgTg-138" value="选题信息表" style="html=1;dashed=0;whiteSpace=wrap;shape=partialRectangle;right=0;fillColor=#f5f5f5;fontColor=#333333;strokeColor=#666666;" parent="1" vertex="1">
          <mxGeometry x="440" y="554" width="110" height="62" as="geometry" />
        </mxCell>
        <mxCell id="PoWQCDL0FBw1ZR0qfgTg-157" value="申报课题信息" style="edgeStyle=orthogonalEdgeStyle;rounded=0;orthogonalLoop=1;jettySize=auto;html=1;exitX=1;exitY=0.5;exitDx=0;exitDy=0;exitPerimeter=0;entryX=0.25;entryY=1;entryDx=0;entryDy=0;" parent="1" source="PoWQCDL0FBw1ZR0qfgTg-155" target="PoWQCDL0FBw1ZR0qfgTg-127" edge="1">
          <mxGeometry relative="1" as="geometry" />
        </mxCell>
        <mxCell id="PoWQCDL0FBw1ZR0qfgTg-155" value="申报课题" style="html=1;dashed=0;whiteSpace=wrap;shape=mxgraph.dfd.start;fillColor=#f5f5f5;fontColor=#333333;strokeColor=#666666;" parent="1" vertex="1">
          <mxGeometry x="150" y="1070" width="136" height="60" as="geometry" />
        </mxCell>
        <mxCell id="lf_C6UF_IHhdtLDmvN1T-2" value="任务书信息" style="edgeStyle=orthogonalEdgeStyle;rounded=0;orthogonalLoop=1;jettySize=auto;html=1;exitX=1;exitY=0.5;exitDx=0;exitDy=0;exitPerimeter=0;entryX=0.5;entryY=1;entryDx=0;entryDy=0;" edge="1" parent="1" source="PoWQCDL0FBw1ZR0qfgTg-165" target="PoWQCDL0FBw1ZR0qfgTg-127">
          <mxGeometry relative="1" as="geometry" />
        </mxCell>
        <mxCell id="PoWQCDL0FBw1ZR0qfgTg-165" value="下达任务书" style="html=1;dashed=0;whiteSpace=wrap;shape=mxgraph.dfd.start;fillColor=#f5f5f5;fontColor=#333333;strokeColor=#666666;" parent="1" vertex="1">
          <mxGeometry x="150" y="1160" width="136" height="60" as="geometry" />
        </mxCell>
        <mxCell id="lf_C6UF_IHhdtLDmvN1T-6" value="确认选题信息" style="edgeStyle=orthogonalEdgeStyle;rounded=0;orthogonalLoop=1;jettySize=auto;html=1;exitX=1;exitY=0.5;exitDx=0;exitDy=0;exitPerimeter=0;" edge="1" parent="1" source="lf_C6UF_IHhdtLDmvN1T-4" target="PoWQCDL0FBw1ZR0qfgTg-138">
          <mxGeometry relative="1" as="geometry" />
        </mxCell>
        <mxCell id="lf_C6UF_IHhdtLDmvN1T-4" value="确认选题" style="html=1;dashed=0;whiteSpace=wrap;shape=mxgraph.dfd.start;fillColor=#f5f5f5;fontColor=#333333;strokeColor=#666666;" vertex="1" parent="1">
          <mxGeometry x="200" y="554" width="136" height="60" as="geometry" />
        </mxCell>
        <mxCell id="lf_C6UF_IHhdtLDmvN1T-12" value="审核周进度报告信息" style="edgeStyle=orthogonalEdgeStyle;rounded=0;orthogonalLoop=1;jettySize=auto;html=1;exitX=1;exitY=0.5;exitDx=0;exitDy=0;exitPerimeter=0;entryX=0;entryY=0.75;entryDx=0;entryDy=0;" edge="1" parent="1" source="lf_C6UF_IHhdtLDmvN1T-7" target="PoWQCDL0FBw1ZR0qfgTg-138">
          <mxGeometry relative="1" as="geometry" />
        </mxCell>
        <mxCell id="lf_C6UF_IHhdtLDmvN1T-7" value="审核周进度报告" style="html=1;dashed=0;whiteSpace=wrap;shape=mxgraph.dfd.start;fillColor=#f5f5f5;fontColor=#333333;strokeColor=#666666;" vertex="1" parent="1">
          <mxGeometry x="200" y="630" width="136" height="60" as="geometry" />
        </mxCell>
        <mxCell id="lf_C6UF_IHhdtLDmvN1T-13" value="审核材料信息" style="edgeStyle=orthogonalEdgeStyle;rounded=0;orthogonalLoop=1;jettySize=auto;html=1;exitX=1;exitY=0.5;exitDx=0;exitDy=0;exitPerimeter=0;entryX=0;entryY=1;entryDx=0;entryDy=0;" edge="1" parent="1" source="lf_C6UF_IHhdtLDmvN1T-8" target="PoWQCDL0FBw1ZR0qfgTg-138">
          <mxGeometry relative="1" as="geometry" />
        </mxCell>
        <mxCell id="lf_C6UF_IHhdtLDmvN1T-8" value="审核开题报告等材料信息" style="html=1;dashed=0;whiteSpace=wrap;shape=mxgraph.dfd.start;fillColor=#f5f5f5;fontColor=#333333;strokeColor=#666666;" vertex="1" parent="1">
          <mxGeometry x="200" y="710" width="136" height="60" as="geometry" />
        </mxCell>
        <mxCell id="lf_C6UF_IHhdtLDmvN1T-23" value="审核中期检查信息" style="edgeStyle=orthogonalEdgeStyle;rounded=0;orthogonalLoop=1;jettySize=auto;html=1;exitX=1;exitY=0.5;exitDx=0;exitDy=0;exitPerimeter=0;entryX=0.25;entryY=1;entryDx=0;entryDy=0;" edge="1" parent="1" source="lf_C6UF_IHhdtLDmvN1T-14" target="PoWQCDL0FBw1ZR0qfgTg-138">
          <mxGeometry relative="1" as="geometry" />
        </mxCell>
        <mxCell id="lf_C6UF_IHhdtLDmvN1T-14" value="审核中期检查" style="html=1;dashed=0;whiteSpace=wrap;shape=mxgraph.dfd.start;fillColor=#f5f5f5;fontColor=#333333;strokeColor=#666666;" vertex="1" parent="1">
          <mxGeometry x="200" y="780" width="136" height="60" as="geometry" />
        </mxCell>
        <mxCell id="lf_C6UF_IHhdtLDmvN1T-24" value="审阅定稿信息" style="edgeStyle=orthogonalEdgeStyle;rounded=0;orthogonalLoop=1;jettySize=auto;html=1;exitX=1;exitY=0.5;exitDx=0;exitDy=0;exitPerimeter=0;entryX=0.5;entryY=1;entryDx=0;entryDy=0;" edge="1" parent="1" source="lf_C6UF_IHhdtLDmvN1T-15" target="PoWQCDL0FBw1ZR0qfgTg-138">
          <mxGeometry relative="1" as="geometry" />
        </mxCell>
        <mxCell id="lf_C6UF_IHhdtLDmvN1T-15" value="审阅毕业设计（论文）定稿" style="html=1;dashed=0;whiteSpace=wrap;shape=mxgraph.dfd.start;fillColor=#f5f5f5;fontColor=#333333;strokeColor=#666666;" vertex="1" parent="1">
          <mxGeometry x="200" y="850" width="136" height="60" as="geometry" />
        </mxCell>
        <mxCell id="lf_C6UF_IHhdtLDmvN1T-25" value="审核修改信息" style="edgeStyle=orthogonalEdgeStyle;rounded=0;orthogonalLoop=1;jettySize=auto;html=1;exitX=1;exitY=0.5;exitDx=0;exitDy=0;exitPerimeter=0;entryX=0.75;entryY=1;entryDx=0;entryDy=0;" edge="1" parent="1" source="lf_C6UF_IHhdtLDmvN1T-16" target="PoWQCDL0FBw1ZR0qfgTg-138">
          <mxGeometry relative="1" as="geometry" />
        </mxCell>
        <mxCell id="lf_C6UF_IHhdtLDmvN1T-16" value="毕业设计（论文）定稿修改审核" style="html=1;dashed=0;whiteSpace=wrap;shape=mxgraph.dfd.start;fillColor=#f5f5f5;fontColor=#333333;strokeColor=#666666;" vertex="1" parent="1">
          <mxGeometry x="200" y="920" width="136" height="60" as="geometry" />
        </mxCell>
        <mxCell id="lf_C6UF_IHhdtLDmvN1T-26" value="校优论文推荐表2信息" style="edgeStyle=orthogonalEdgeStyle;rounded=0;orthogonalLoop=1;jettySize=auto;html=1;exitX=1;exitY=0.5;exitDx=0;exitDy=0;exitPerimeter=0;entryX=1;entryY=1;entryDx=0;entryDy=0;" edge="1" parent="1" source="lf_C6UF_IHhdtLDmvN1T-20" target="PoWQCDL0FBw1ZR0qfgTg-138">
          <mxGeometry relative="1" as="geometry" />
        </mxCell>
        <mxCell id="lf_C6UF_IHhdtLDmvN1T-20" value="填写校优论文推荐表" style="html=1;dashed=0;whiteSpace=wrap;shape=mxgraph.dfd.start;fillColor=#f5f5f5;fontColor=#333333;strokeColor=#666666;" vertex="1" parent="1">
          <mxGeometry x="200" y="990" width="136" height="60" as="geometry" />
        </mxCell>
      </root>
    </mxGraphModel>
  </diagram>
</mxfile>
